<?xml version="1.0" encoding="UTF-8"?>
<svg version="1.1" xmlns="http://www.w3.org/2000/svg" width="100" height="100">
<path d="M0 0 C0.67546875 0.30164063 1.3509375 0.60328125 2.046875 0.9140625 C2.421875 3.0390625 2.421875 3.0390625 2.046875 5.9140625 C0.69775391 7.50732422 0.69775391 7.50732422 -0.9765625 9.09375 C-1.53005371 9.62468262 -2.08354492 10.15561523 -2.65380859 10.70263672 C-3.08258301 11.10240723 -3.51135742 11.50217773 -3.953125 11.9140625 C-3.08099365 11.92864502 -2.2088623 11.94322754 -1.31030273 11.95825195 C1.95347496 12.01963622 5.21645457 12.09384638 8.47973633 12.17651367 C9.8868528 12.20958244 11.29409616 12.23766954 12.70141602 12.26049805 C14.73508324 12.29438049 16.76760635 12.34670468 18.80078125 12.40234375 C20.63104858 12.44161987 20.63104858 12.44161987 22.49829102 12.48168945 C30.14086056 13.41288936 35.96479109 17.22533344 41.046875 22.9140625 C44.64034763 28.57977101 45.00501579 35.40593637 44.046875 41.9140625 C41.86791537 48.46956497 38.80171654 53.11586708 33.046875 56.9140625 C28.0696148 59.37630739 24.51339334 60.29127349 18.87109375 60.27734375 C18.21986038 60.27784225 17.56862701 60.27834076 16.8976593 60.27885437 C15.53550123 60.27653292 14.17333727 60.26691976 12.8112793 60.25024414 C10.7221079 60.22642263 8.63419669 60.22972501 6.54492188 60.23632812 C-3.68599908 60.18118842 -3.68599908 60.18118842 -5.953125 57.9140625 C-5.578125 55.2890625 -5.578125 55.2890625 -4.953125 52.9140625 C-4.21263916 52.89947998 -3.47215332 52.88489746 -2.70922852 52.86987305 C0.68912913 52.79479028 4.0865684 52.69832969 7.484375 52.6015625 C9.23137695 52.56772461 9.23137695 52.56772461 11.01367188 52.53320312 C22.58118504 52.17508321 22.58118504 52.17508321 32.484375 46.7890625 C34.93219911 42.28506613 36.54569687 37.86542523 35.671875 32.6953125 C34.17396479 28.13349504 32.23681368 25.4475138 28.046875 22.9140625 C23.73314187 21.21281827 20.17954346 20.67470375 15.5546875 20.71875 C14.35585938 20.72519531 13.15703125 20.73164062 11.921875 20.73828125 C10.065625 20.76341797 10.065625 20.76341797 8.171875 20.7890625 C6.91117188 20.79808594 5.65046875 20.80710937 4.3515625 20.81640625 C1.2498046 20.83990442 -1.85156152 20.87275916 -4.953125 20.9140625 C-4.45288818 21.38529541 -3.95265137 21.85652832 -3.43725586 22.34204102 C-2.79151611 22.96522217 -2.14577637 23.58840332 -1.48046875 24.23046875 C-0.83585693 24.84607666 -0.19124512 25.46168457 0.47290039 26.09594727 C2.046875 27.9140625 2.046875 27.9140625 2.484375 30.8515625 C2.2678125 31.8725 2.2678125 31.8725 2.046875 32.9140625 C0.28125 33.59765625 0.28125 33.59765625 -1.953125 33.9140625 C-3.8125 32.76171875 -3.8125 32.76171875 -5.703125 30.9765625 C-6.38761719 30.33074219 -7.07210938 29.68492188 -7.77734375 29.01953125 C-8.49535156 28.32472656 -9.21335937 27.62992188 -9.953125 26.9140625 C-10.72269531 26.22957031 -11.49226563 25.54507813 -12.28515625 24.83984375 C-13.02121094 24.16308594 -13.75726563 23.48632812 -14.515625 22.7890625 C-15.19753906 22.16773437 -15.87945313 21.54640625 -16.58203125 20.90625 C-17.953125 18.9140625 -17.953125 18.9140625 -18.08984375 16.6328125 C-16.34135156 12.4508518 -13.39329993 9.69694821 -10.203125 6.5390625 C-9.58179688 5.88550781 -8.96046875 5.23195313 -8.3203125 4.55859375 C-3.66489008 -0.10665024 -3.66489008 -0.10665024 0 0 Z " fill="#B4D7FD" transform="translate(36.953125,20.0859375)"/>
</svg>
