<?xml version="1.0" encoding="UTF-8"?>
<svg version="1.1" xmlns="http://www.w3.org/2000/svg" width="100" height="100">
<path d="M0 0 C1.09505859 -0.01611328 2.19011719 -0.03222656 3.31835938 -0.04882812 C11.36844835 -0.0536227 18.85704582 0.68287397 25.75 5.125 C27.90424394 6.61562454 27.90424394 6.61562454 30.375 5.6875 C31.220625 5.23375 32.06625 4.78 32.9375 4.3125 C41.07734996 0.07299481 48.00876398 0.12992586 57.0625 0.125 C58.25488281 0.11275391 59.44726562 0.10050781 60.67578125 0.08789062 C61.81660156 0.08595703 62.95742187 0.08402344 64.1328125 0.08203125 C65.69539795 0.07586792 65.69539795 0.07586792 67.28955078 0.06958008 C69.9375 0.3125 69.9375 0.3125 72.9375 2.3125 C73.3117218 4.77941895 73.3117218 4.77941895 73.30981445 7.92382812 C73.31915764 9.685755 73.31915764 9.685755 73.32868958 11.48327637 C73.31947983 12.75723267 73.31027008 14.03118896 73.30078125 15.34375 C73.30152901 17.29674011 73.30152901 17.29674011 73.30229187 19.28918457 C73.3022021 22.04658566 73.29176392 24.80369465 73.27368164 27.56103516 C73.25099394 31.09879062 73.25044973 34.63611912 73.25719929 38.17392731 C73.26134069 41.5430838 73.24936978 44.91210823 73.23828125 48.28125 C73.23919266 49.5552063 73.24010406 50.8291626 73.24104309 52.14172363 C73.23151108 53.31634155 73.22197906 54.49095947 73.2121582 55.70117188 C73.20524712 57.25765442 73.20524712 57.25765442 73.19819641 58.84558105 C72.9375 61.3125 72.9375 61.3125 70.9375 63.3125 C68.23876953 63.53613281 68.23876953 63.53613281 64.8203125 63.515625 C63.5725 63.52722656 62.3246875 63.53882813 61.0390625 63.55078125 C58.42708299 63.55847864 55.81500749 63.5511362 53.203125 63.52734375 C45.00470338 63.63632072 39.5174024 64.85705868 32.51904297 69.22167969 C29.9375 70.3125 29.9375 70.3125 27.37744141 69.61962891 C26.57226074 69.18827637 25.76708008 68.75692383 24.9375 68.3125 C16.69843965 64.32483937 9.54768569 63.7253016 0.4375 63.6875 C-2.07301634 63.66208992 -4.58346869 63.62866569 -7.09375 63.5859375 C-8.19267578 63.57997559 -9.29160156 63.57401367 -10.42382812 63.56787109 C-13.0625 63.3125 -13.0625 63.3125 -15.0625 61.3125 C-15.32319641 58.84558105 -15.32319641 58.84558105 -15.3371582 55.70117188 C-15.34669022 54.52655396 -15.35622223 53.35193604 -15.36604309 52.14172363 C-15.36513168 50.86776733 -15.36422028 49.59381104 -15.36328125 48.28125 C-15.36756638 46.97925659 -15.3718515 45.67726318 -15.37626648 44.33581543 C-15.38373265 41.57849053 -15.38343436 38.82129366 -15.37817383 36.06396484 C-15.3723746 32.52613105 -15.38931841 28.98882001 -15.4125185 25.45107269 C-15.43076917 22.08194261 -15.42707123 18.71292934 -15.42578125 15.34375 C-15.434991 14.0697937 -15.44420074 12.7958374 -15.45368958 11.48327637 C-15.44746078 10.30865845 -15.44123199 9.13404053 -15.43481445 7.92382812 C-15.43544388 6.8861731 -15.4360733 5.84851807 -15.4367218 4.77941895 C-15.31322861 3.96533569 -15.18973541 3.15125244 -15.0625 2.3125 C-10.37477945 -0.81264704 -5.51339149 -0.01583398 0 0 Z M-7.0625 8.3125 C-7.0625 23.8225 -7.0625 39.3325 -7.0625 55.3125 C0.5275 55.6425 8.1175 55.9725 15.9375 56.3125 C20.8875 57.7975 20.8875 57.7975 25.9375 59.3125 C25.9375 44.4625 25.9375 29.6125 25.9375 14.3125 C12.18012942 6.66951635 10.97420926 8.3125 -7.0625 8.3125 Z M34.39941406 12.38012695 C31.77630049 15.84738546 32.45526641 20.02851702 32.546875 24.23046875 C32.55253479 25.20284988 32.55819458 26.17523102 32.56402588 27.17707825 C32.58643071 30.285218 32.63663519 33.39220824 32.6875 36.5 C32.70755967 38.60610315 32.72581136 40.71222436 32.7421875 42.81835938 C32.78630907 47.98351636 32.8553654 53.14781324 32.9375 58.3125 C35.9075 57.6525 38.8775 56.9925 41.9375 56.3125 C49.5275 55.9825 57.1175 55.6525 64.9375 55.3125 C64.9375 39.8025 64.9375 24.2925 64.9375 8.3125 C48.37438881 7.84561061 48.37438881 7.84561061 34.39941406 12.38012695 Z " fill="#B3D6FC" transform="translate(21.0625,14.6875)"/>
<path d="M0 0 C6.6 0 13.2 0 20 0 C20 1.98 20 3.96 20 6 C13.4 6 6.8 6 0 6 C0 4.02 0 2.04 0 0 Z " fill="#B3D6FD" transform="translate(60,49)"/>
<path d="M0 0 C6.6 0 13.2 0 20 0 C20 1.98 20 3.96 20 6 C13.4 6 6.8 6 0 6 C0 4.02 0 2.04 0 0 Z " fill="#B3D6FD" transform="translate(20,49)"/>
<path d="M0 0 C6.6 0 13.2 0 20 0 C20 1.98 20 3.96 20 6 C13.4 6 6.8 6 0 6 C0 4.02 0 2.04 0 0 Z " fill="#B3D6FD" transform="translate(60,35)"/>
<path d="M0 0 C6.6 0 13.2 0 20 0 C20 1.98 20 3.96 20 6 C13.4 6 6.8 6 0 6 C0 4.02 0 2.04 0 0 Z " fill="#B3D6FD" transform="translate(20,35)"/>
</svg>
