<?xml version="1.0" encoding="UTF-8"?>
<svg version="1.1" xmlns="http://www.w3.org/2000/svg" width="102" height="100">
<path d="M0 0 C2.43603516 0.09790039 2.43603516 0.09790039 5 1 C6.61474609 2.90405273 6.61474609 2.90405273 8.0234375 5.43359375 C8.56186279 6.37952393 9.10028809 7.3254541 9.6550293 8.30004883 C10.22261963 9.33540771 10.79020996 10.3707666 11.375 11.4375 C12.61842007 13.63806011 13.86191213 15.83857955 15.10546875 18.0390625 C15.74532715 19.18536133 16.38518555 20.33166016 17.04443359 21.51269531 C19.58352978 26.04059167 22.18090913 30.53339884 24.78369141 35.02490234 C26.67021536 38.28265197 28.54431826 41.54733395 30.41796875 44.8125 C32.71185661 48.7975655 35.04474661 52.75391736 37.42578125 56.6875 C37.94760986 57.55850342 38.46943848 58.42950684 39.00708008 59.3269043 C39.97272628 60.93463021 40.94972612 62.53561447 41.94018555 64.12817383 C45.03636075 69.31369086 45.03636075 69.31369086 44.84375 72.94921875 C44 75 44 75 43 76 C40.45486996 76.10569379 37.93673674 76.14678172 35.39086914 76.14526367 C34.1957798 76.15030159 34.1957798 76.15030159 32.97654724 76.15544128 C30.32940127 76.16497998 27.68231836 76.16689585 25.03515625 76.16796875 C23.20291619 76.17117929 21.3706764 76.17454321 19.53843689 76.17805481 C15.69236659 76.18405338 11.84631879 76.18589396 8.00024414 76.18530273 C3.06239276 76.18520107 -1.87531498 76.19885467 -6.81313229 76.21607494 C-10.59884814 76.22717204 -14.38452902 76.22922265 -18.17025948 76.22869301 C-19.99119118 76.22987654 -21.81212369 76.23431905 -23.63303947 76.24202538 C-26.17595467 76.25177928 -28.71855477 76.2489656 -31.26147461 76.24291992 C-32.39847305 76.25134918 -32.39847305 76.25134918 -33.55844116 76.25994873 C-38.77168443 76.22831557 -38.77168443 76.22831557 -41 74 C-41.01844376 67.03747874 -37.41045628 61.9810222 -33.875 56.1875 C-32.59672901 54.04742857 -31.31941904 51.90678289 -30.04296875 49.765625 C-29.3782959 48.65767578 -28.71362305 47.54972656 -28.02880859 46.40820312 C-24.68360314 40.78858001 -21.44063929 35.11073325 -18.1875 29.4375 C-14.05916236 22.26895891 -9.92459488 15.10495496 -5.6875 8 C-5.33260498 7.4011499 -4.97770996 6.8022998 -4.61206055 6.18530273 C-3.21549601 3.86165706 -1.92658315 1.92658315 0 0 Z M1 12 C0.58862793 12.72251953 0.17725586 13.44503906 -0.24658203 14.18945312 C-2.20478353 17.62702781 -4.16437579 21.06380673 -6.125 24.5 C-6.66039398 25.43839722 -6.66039398 25.43839722 -7.206604 26.39575195 C-12.96169777 36.47803473 -18.77669855 46.5231163 -24.65673828 56.53320312 C-25.20056152 57.46068359 -25.74438477 58.38816406 -26.3046875 59.34375 C-26.77890137 60.15005859 -27.25311523 60.95636719 -27.74169922 61.78710938 C-28.89761003 63.81993351 -29.95419851 65.90839702 -31 68 C-9.55 68 11.9 68 34 68 C30.25540799 60.39483334 30.25540799 60.39483334 26.16015625 53.0546875 C25.6609668 52.21631348 25.16177734 51.37793945 24.64746094 50.51416016 C24.12442383 49.6432373 23.60138672 48.77231445 23.0625 47.875 C21.92236437 45.96402632 20.78307422 44.052548 19.64453125 42.140625 C18.75822021 40.65272461 18.75822021 40.65272461 17.85400391 39.13476562 C15.90851661 35.8453191 13.9880735 32.54231885 12.07421875 29.234375 C11.43540771 28.13109863 10.79659668 27.02782227 10.13842773 25.89111328 C8.89168994 23.73482908 7.64765537 21.57697937 6.40649414 19.41748047 C5.84438232 18.44697754 5.28227051 17.47647461 4.703125 16.4765625 C4.20458008 15.61111816 3.70603516 14.74567383 3.19238281 13.85400391 C2.79889648 13.24218262 2.40541016 12.63036133 2 12 C1.67 12 1.34 12 1 12 Z " fill="#D81D05" transform="translate(50,12)"/>
<path d="M0 0 C2.64 0 5.28 0 8 0 C8 7.59 8 15.18 8 23 C5.36 23 2.72 23 0 23 C0 15.41 0 7.82 0 0 Z " fill="#D71D05" transform="translate(48,42)"/>
<path d="M0 0 C2.64 0 5.28 0 8 0 C8 2.64 8 5.28 8 8 C5.36 8 2.72 8 0 8 C0 5.36 0 2.72 0 0 Z " fill="#D71D05" transform="translate(48,67)"/>
</svg>
