<?xml version="1.0" encoding="UTF-8"?>
<svg version="1.1" xmlns="http://www.w3.org/2000/svg" width="100" height="100">
<path d="M0 0 C10.99716541 8.84269518 18.10437536 18.85595778 20.109375 33.09765625 C20.99921975 46.40746177 17.15626419 57.22830116 9.29296875 67.84375 C11.09138888 72.44210567 14.78254192 75.32564753 18.39257812 78.51367188 C21.20217896 81.15866227 22.27947031 82.78812711 23.19921875 86.578125 C23.29296875 89.84375 23.29296875 89.84375 22.23046875 91.78125 C19.19670182 93.44492864 17.73397166 93.49299583 14.29296875 92.84375 C10.57290675 90.28053655 7.44992904 87.10349809 4.40234375 83.78515625 C1.23647132 80.00885081 1.23647132 80.00885081 -3.20703125 78.71875 C-4.03203125 79.09 -4.85703125 79.46125 -5.70703125 79.84375 C-17.02413368 84.69393676 -30.69742064 86.15343621 -42.546875 81.82421875 C-49.84318357 78.51251269 -49.84318357 78.51251269 -52.70703125 75.84375 C-53.26953125 73.09375 -53.26953125 73.09375 -52.70703125 70.84375 C-52.37703125 70.51375 -52.04703125 70.18375 -51.70703125 69.84375 C-47.35712771 70.12140342 -44.24893049 71.0181037 -40.33203125 72.90625 C-32.39525471 76.24164382 -21.28540291 76.4612236 -13.14453125 73.65625 C-2.67278955 68.13478619 4.5593528 62.05770509 9.54296875 51.09375 C12.51108631 38.23190724 11.27244376 27.12756983 4.29296875 15.84375 C1.91796084 12.96734384 1.91796084 12.96734384 -0.70703125 10.84375 C-1.47015625 10.163125 -2.23328125 9.4825 -3.01953125 8.78125 C-12.02399223 2.28966185 -21.56757601 -0.04216665 -32.62109375 1.1796875 C-41.33623116 3.05509682 -49.92397819 8.01411193 -55.70703125 14.84375 C-62.86861888 26.36456488 -64.55288482 36.36631886 -61.69140625 49.4765625 C-60.70272393 52.85848378 -59.3031452 55.7137661 -57.70703125 58.84375 C-57.51953125 61.71875 -57.51953125 61.71875 -57.70703125 63.84375 C-59.68703125 64.83375 -59.68703125 64.83375 -61.70703125 65.84375 C-67.86484063 60.71224218 -70.4831094 53.66978876 -71.70703125 45.84375 C-72.70532672 30.46616022 -69.85858524 18.81741606 -60.046875 6.8125 C-45.05683718 -9.3469734 -18.09595603 -13.06752223 0 0 Z " fill="#B4D7FD" transform="translate(73.70703125,7.15625)"/>
<path d="M0 0 C1 1 1 1 1.0625 3.5625 C1.041875 4.366875 1.02125 5.17125 1 6 C-0.32064453 6.45439453 -0.32064453 6.45439453 -1.66796875 6.91796875 C-10.39677042 9.92865016 -10.39677042 9.92865016 -17 16 C-17.53625 16.61875 -18.0725 17.2375 -18.625 17.875 C-20.20894447 20.15543181 -20.20894447 20.15543181 -21.375 23.6875 C-23 27 -23 27 -25.5625 28.0625 C-28 28 -28 28 -30 26 C-30 18.93052333 -27.55391794 14.32884935 -23 9 C-17.22183542 3.29902464 -8.47113678 -2.99201299 0 0 Z " fill="#B3D6FC" transform="translate(47,14)"/>
</svg>
