<?xml version="1.0" encoding="UTF-8"?>
<svg version="1.1" xmlns="http://www.w3.org/2000/svg" width="100" height="100">
<path d="M0 0 C0.265625 2.28125 0.265625 2.28125 0 5 C-1.828125 6.84375 -1.828125 6.84375 -4.25 8.5 C-10.66116615 13.17543572 -14.84814793 18.27289486 -17 26 C-18.35413844 36.27079578 -17.01989037 44.48249554 -11 53 C-4.69883634 60.27356546 2.80119993 63.3725483 12.2890625 64.05859375 C20.98640749 63.87061079 28.89465371 61.30976637 35 55 C42.33401077 45.71789262 43.96569456 37.67390257 43 26 C41.25899398 18.79619664 36.36081829 11.95810431 30.21484375 7.7890625 C29.66957031 7.46679688 29.12429687 7.14453125 28.5625 6.8125 C27.2940625 5.9153125 27.2940625 5.9153125 26 5 C25.625 2.25 25.625 2.25 26 0 C28.125 -0.75 28.125 -0.75 31 -1 C40.64036344 3.92729687 47.17117843 12.67673655 50.609375 22.79296875 C52.35504468 32.65600245 52.14928893 44.23525288 47 53 C41.95316459 59.62867934 36.21485894 65.8736688 28.4375 69.1875 C27.69371094 69.51105469 26.94992188 69.83460937 26.18359375 70.16796875 C17.47215086 73.48735575 6.98295056 73.10184357 -1.76171875 70.0390625 C-5.65501728 68.23170227 -8.79562766 65.8305289 -12 63 C-12.61875 62.4740625 -13.2375 61.948125 -13.875 61.40625 C-20.58709158 55.272787 -24.65741089 47.35225288 -25.23828125 38.27734375 C-25.58394983 24.96833529 -23.76058335 16.16117234 -14.31640625 6.19140625 C-6.21571938 -1.47214406 -6.21571938 -1.47214406 0 0 Z " fill="#B3D6FC" transform="translate(37,19)"/>
<path d="M0 0 C2.5 0.3125 2.5 0.3125 5 1 C7.16717275 5.3343455 6.18496361 11.17670525 6.1875 15.9375 C6.19974609 17.14341797 6.21199219 18.34933594 6.22460938 19.59179688 C6.22654297 20.74615234 6.22847656 21.90050781 6.23046875 23.08984375 C6.23457764 24.15066162 6.23868652 25.21147949 6.24291992 26.30444336 C6 29 6 29 4 32 C2.35 31.67 0.7 31.34 -1 31 C-1.02465622 26.74585377 -1.04283899 22.49174502 -1.05493164 18.23754883 C-1.05997101 16.78929927 -1.06680253 15.34105483 -1.07543945 13.89282227 C-1.08752247 11.81525412 -1.09323211 9.73775303 -1.09765625 7.66015625 C-1.10289307 6.40855713 -1.10812988 5.15695801 -1.11352539 3.86743164 C-1 1 -1 1 0 0 Z " fill="#B3D7FC" transform="translate(48,9)"/>
</svg>
