<?xml version="1.0" encoding="UTF-8"?>
<svg version="1.1" xmlns="http://www.w3.org/2000/svg" width="35" height="46">
<path d="M0 0 C1.68516954 1.68516954 1.13008019 3.78767788 1.1328125 6.09375 C1.13474609 7.63869141 1.13474609 7.63869141 1.13671875 9.21484375 C1.13285156 10.29894531 1.12898437 11.38304687 1.125 12.5 C1.12886719 13.58410156 1.13273438 14.66820312 1.13671875 15.78515625 C1.13542969 16.81511719 1.13414063 17.84507813 1.1328125 18.90625 C1.13168457 19.85822266 1.13055664 20.81019531 1.12939453 21.79101562 C1 24 1 24 0 25 C-2.64 25 -5.28 25 -8 25 C-8 17.08 -8 9.16 -8 1 C-5.26752652 -0.36623674 -3.01801098 -0.128426 0 0 Z " fill="#BADFE2" transform="translate(8,10)"/>
<path d="M0 0 C1.65 0 3.3 0 5 0 C6.8855253 1.8855253 6.13246689 4.57768831 6.13671875 7.08203125 C6.13285156 7.87996094 6.12898438 8.67789062 6.125 9.5 C6.12886719 10.29792969 6.13273437 11.09585937 6.13671875 11.91796875 C6.12660767 17.87339233 6.12660767 17.87339233 5 19 C3.35 19 1.7 19 0 19 C0 12.73 0 6.46 0 0 Z " fill="#BBDFE2" transform="translate(11,13)"/>
</svg>
