<?xml version="1.0" encoding="UTF-8"?>
<svg version="1.1" xmlns="http://www.w3.org/2000/svg" width="100" height="100">
<path d="M0 0 C10.04625236 10.3648835 12.34128032 22.50570477 12.125 36.40625 C11.71962617 46.27912971 7.18795557 55.27621779 0.53125 62.47265625 C-0.025625 62.96765625 -0.5825 63.46265625 -1.15625 63.97265625 C-1.465625 62.61140625 -1.465625 62.61140625 -1.78125 61.22265625 C-4.98188275 50.41504018 -9.77373442 43.27711336 -19.15625 36.97265625 C-19.92195313 37.40578125 -19.92195313 37.40578125 -20.703125 37.84765625 C-27.17357176 41.15171417 -32.9488586 41.96414925 -40.15625 40.97265625 C-43.3430937 39.92837978 -46.23966276 38.62244297 -49.15625 36.97265625 C-59.32657005 43.86365742 -63.14557973 51.24817608 -66.15625 62.97265625 C-67.14625 62.97265625 -68.13625 62.97265625 -69.15625 62.97265625 C-78.74508165 52.38658611 -80.89085517 38.89763424 -80.33544922 25.21972656 C-79.44135478 14.00822087 -73.12537572 4.20224938 -65.13671875 -3.3984375 C-44.63764638 -20.25862128 -18.94347245 -17.81098225 0 0 Z M-50.15625 8.41015625 C-52.50496462 14.42873747 -52.40616561 18.93950974 -50.16796875 24.89453125 C-47.64211097 30.08277966 -43.45146308 32.99992981 -38.15625 34.97265625 C-32.1256278 35.76355752 -28.3278927 34.69336576 -23.140625 31.52734375 C-19.18906756 28.43143851 -17.70716867 24.82216893 -16.28125 20.03515625 C-16.06886999 14.83184595 -17.11852997 10.66375555 -19.84375 6.22265625 C-24.22017672 1.96451133 -27.95338239 -0.2465234 -34.03125 -0.65234375 C-40.87120633 -0.37039135 -45.90307516 3.22659942 -50.15625 8.41015625 Z " fill="#5091CD" transform="translate(84.15625,18.02734375)"/>
</svg>
