<?xml version="1.0" encoding="UTF-8"?>
<svg version="1.1" xmlns="http://www.w3.org/2000/svg" width="100" height="100">
<path d="M0 0 C4.4214517 0.84666096 6.81785299 2.92662348 9.36401367 6.64672852 C10.95834133 9.28050429 12.48688242 11.94374923 14 14.625 C15.1564667 16.62898383 16.31536531 18.63156601 17.4765625 20.6328125 C18.34716309 22.13569824 18.34716309 22.13569824 19.23535156 23.66894531 C21.68887187 27.83978908 24.26769222 31.92410769 26.875 36 C31.49383778 43.24529668 36.02435147 50.54031159 40.5 57.875 C41.09611084 58.84816162 41.69222168 59.82132324 42.30639648 60.82397461 C49.97600867 73.42649427 49.97600867 73.42649427 49.8125 78.25 C48.96351459 81.4640162 48.61502452 82.70882918 45.9375 84.5625 C42.16934447 85.81855184 38.63287874 85.73428315 34.70581055 85.75537109 C33.86644958 85.76354858 33.02708862 85.77172607 32.16229248 85.78015137 C29.3829418 85.80497592 26.60364207 85.82151313 23.82421875 85.8359375 C22.87462595 85.84126118 21.92503315 85.84658485 20.94666481 85.85206985 C15.92123853 85.87878762 10.89583698 85.89816762 5.87036133 85.91259766 C1.71193475 85.92594316 -2.44600185 85.95380896 -6.60424805 85.99462891 C-11.62630893 86.0439281 -16.64792497 86.06871524 -21.67021751 86.07582474 C-23.58278445 86.08253916 -25.49534139 86.09776622 -27.40777016 86.12171555 C-30.08658182 86.15335051 -32.76367738 86.15340674 -35.44262695 86.14599609 C-36.22985641 86.16240143 -37.01708588 86.17880676 -37.82817078 86.19570923 C-41.82245667 86.15056123 -44.35105744 85.74181031 -47.54801941 83.24453735 C-50.0625 80.5625 -50.0625 80.5625 -50.9140625 77.06640625 C-50.37351436 70.4578191 -45.9208127 64.92685837 -42.4375 59.5 C-41.65827186 58.25731365 -40.88086792 57.01348171 -40.10522461 55.76855469 C-38.52800243 53.24091189 -36.94242798 50.71883393 -35.35009766 48.20068359 C-32.63506751 43.89716414 -29.99719502 39.54812714 -27.36572266 35.19311523 C-25.66015828 32.37068128 -23.94324256 29.55548387 -22.22265625 26.7421875 C-20.1934679 23.42348467 -18.18135644 20.09551258 -16.18359375 16.7578125 C-15.31027634 15.31747755 -14.43660346 13.87735805 -13.5625 12.4375 C-13.18939697 11.80424805 -12.81629395 11.17099609 -12.43188477 10.51855469 C-9.40394375 5.57547664 -5.92803658 1.08882305 0 0 Z M-1.0625 10.5625 C-1.85856345 11.74831087 -2.60332737 12.96855518 -3.328125 14.19921875 C-3.79911621 14.99303955 -4.27010742 15.78686035 -4.75537109 16.60473633 C-5.26922363 17.47767334 -5.78307617 18.35061035 -6.3125 19.25 C-10.62008942 26.50164866 -14.98243266 33.71299574 -19.4375 40.875 C-24.26634407 48.65664938 -29.08672919 56.4433018 -33.875 64.25 C-34.4922998 65.24878174 -35.10959961 66.24756348 -35.74560547 67.27661133 C-36.31037598 68.19982178 -36.87514648 69.12303223 -37.45703125 70.07421875 C-38.21270386 71.30338013 -38.21270386 71.30338013 -38.98364258 72.55737305 C-40.22043949 74.47655042 -40.22043949 74.47655042 -40.0625 76.5625 C-13.9925 76.5625 12.0775 76.5625 38.9375 76.5625 C38.9375 73.04810578 38.15949412 71.93007917 36.33203125 68.9765625 C35.48487549 67.59645996 35.48487549 67.59645996 34.62060547 66.18847656 C34.00330566 65.1981543 33.38600586 64.20783203 32.75 63.1875 C31.80084717 61.64787598 31.80084717 61.64787598 30.83251953 60.07714844 C29.51614156 57.94380997 28.19676401 55.81231971 26.87451172 53.68261719 C25.08826609 50.80535235 23.30999556 47.92337254 21.53515625 45.0390625 C18.35139746 39.87053595 15.14808702 34.71439478 11.9375 29.5625 C11.3712793 28.65226074 10.80505859 27.74202148 10.22167969 26.80419922 C8.54788531 24.11677161 6.86868125 21.43281134 5.1875 18.75 C4.67364746 17.92467773 4.15979492 17.09935547 3.63037109 16.24902344 C2.92388428 15.12608887 2.92388428 15.12608887 2.203125 13.98046875 C1.58099121 12.98696411 1.58099121 12.98696411 0.94628906 11.97338867 C0.44693848 11.27499878 0.44693848 11.27499878 -0.0625 10.5625 C-0.3925 10.5625 -0.7225 10.5625 -1.0625 10.5625 Z " fill="#B4D7FC" transform="translate(50.0625,7.4375)"/>
<path d="M0 0 C2.5 0.25 2.5 0.25 4.5 2.25 C4.75878906 4.37304687 4.75878906 4.37304687 4.765625 6.96875 C4.76820312 7.90074219 4.77078125 8.83273438 4.7734375 9.79296875 C4.76570313 10.76878906 4.75796875 11.74460937 4.75 12.75 C4.75773437 13.72582031 4.76546875 14.70164062 4.7734375 15.70703125 C4.77085938 16.63902344 4.76828125 17.57101563 4.765625 18.53125 C4.76336914 19.38783203 4.76111328 20.24441406 4.75878906 21.12695312 C4.5 23.25 4.5 23.25 2.5 25.25 C0 25.5 0 25.5 -2.5 25.25 C-4.99057251 22.75942749 -4.7565813 21.96527341 -4.765625 18.53125 C-4.76820312 17.59925781 -4.77078125 16.66726562 -4.7734375 15.70703125 C-4.76570313 14.73121094 -4.75796875 13.75539063 -4.75 12.75 C-4.75773437 11.77417969 -4.76546875 10.79835938 -4.7734375 9.79296875 C-4.77085938 8.86097656 -4.76828125 7.92898437 -4.765625 6.96875 C-4.76336914 6.11216797 -4.76111328 5.25558594 -4.75878906 4.37304688 C-4.35836864 1.08808838 -3.22105998 0.322106 0 0 Z " fill="#B3D6FC" transform="translate(49.5,33.75)"/>
<path d="M0 0 C2.5 0.25 2.5 0.25 4.5 2.25 C4.75 4.75 4.75 4.75 4.5 7.25 C2.5 9.25 2.5 9.25 0 9.5 C-2.5 9.25 -2.5 9.25 -4.5 7.25 C-4.75 4.75 -4.75 4.75 -4.5 2.25 C-2.5 0.25 -2.5 0.25 0 0 Z " fill="#B4D7FC" transform="translate(49.5,66.75)"/>
</svg>
