<?xml version="1.0" encoding="UTF-8"?>
<svg version="1.1" xmlns="http://www.w3.org/2000/svg" width="100" height="100">
<path d="M0 0 C6.63236266 4.89701329 12.28966397 10.35666357 14.1796875 18.609375 C15.36560542 29.53111434 14.43334487 38.05372429 7.3828125 46.8515625 C1.26549079 53.53167781 -4.54701225 56.6442118 -13.65234375 57.12890625 C-23.83916337 57.33680053 -30.68921137 54.73309399 -38.1953125 47.859375 C-44.70225267 40.74652542 -46.46569008 34.13085755 -46.359375 24.5625 C-45.91549848 15.13456274 -41.81745744 8.57713352 -34.9609375 2.3046875 C-25.30178314 -5.34508074 -10.68064478 -6.40119452 0 0 Z M-32.8203125 10.609375 C-36.87143752 16.06576832 -39.23467569 21.75462389 -38.8203125 28.609375 C-37.54306065 34.87102432 -35.1418993 41.14324717 -29.87890625 45.05078125 C-23.99971189 48.63964598 -18.3341055 50.53009895 -11.46484375 49.12890625 C-4.83545693 47.11899165 0.30332352 44.4648858 3.9921875 38.421875 C7.1598053 32.15839773 8.04400306 26.68946556 5.9921875 19.921875 C3.29708831 13.03439929 0.2442002 8.94723821 -6.39453125 5.58984375 C-15.73340749 1.81519329 -25.24418204 4.06635324 -32.8203125 10.609375 Z " fill="#B3D7FD" transform="translate(65.8203125,23.390625)"/>
<path d="M0 0 C1.12341797 -0.01224609 2.24683594 -0.02449219 3.40429688 -0.03710938 C5.01208008 -0.04000977 5.01208008 -0.04000977 6.65234375 -0.04296875 C8.13528931 -0.04913208 8.13528931 -0.04913208 9.64819336 -0.05541992 C12.0625 0.1875 12.0625 0.1875 14.0625 2.1875 C13.52678571 5.72321429 13.52678571 5.72321429 12.0625 7.1875 C8.08974185 7.44006877 4.10483825 7.37272451 0.125 7.375 C-0.99841797 7.38724609 -2.12183594 7.39949219 -3.27929688 7.41210938 C-4.35115234 7.41404297 -5.42300781 7.41597656 -6.52734375 7.41796875 C-8.01028931 7.42413208 -8.01028931 7.42413208 -9.52319336 7.43041992 C-11.9375 7.1875 -11.9375 7.1875 -13.9375 5.1875 C-12.80885833 -2.26153502 -6.2146286 0.00355325 0 0 Z " fill="#B4D6FD" transform="translate(49.9375,82.8125)"/>
<path d="M0 0 C0.70125 0.28875 1.4025 0.5775 2.125 0.875 C2.7890625 2.640625 2.7890625 2.640625 3.125 4.875 C1.61348587 7.6707329 -0.44343919 9.84031464 -2.875 11.875 C-5.6875 12.375 -5.6875 12.375 -7.875 11.875 C-8.875 10.875 -8.875 10.875 -9.3125 8.6875 C-8.73858003 4.99801447 -7.22630395 3.46724738 -4.54296875 0.96875 C-2.875 -0.125 -2.875 -0.125 0 0 Z " fill="#B3D6FD" transform="translate(84.875,14.125)"/>
<path d="M0 0 C3.54099693 0.19672205 5.00869311 1.00695448 7.8125 3.25 C10 6 10 6 10.375 8.75 C10 11 10 11 9 12 C6.8125 12.5 6.8125 12.5 4 12 C1.56843919 9.96531464 -0.48848587 7.7957329 -2 5 C-1.73010224 2.85624065 -1.54355515 1.54355515 0 0 Z " fill="#B4D6FD" transform="translate(14,14)"/>
<path d="M0 0 C1.20462891 -0.02126953 1.20462891 -0.02126953 2.43359375 -0.04296875 C4.5625 0.1875 4.5625 0.1875 6.5625 2.1875 C6.00694444 6.74305556 6.00694444 6.74305556 4.5625 8.1875 C2.6015625 8.390625 2.6015625 8.390625 0.1875 8.4375 C-0.60398437 8.46328125 -1.39546875 8.4890625 -2.2109375 8.515625 C-4.90774878 8.11820018 -5.74479015 7.26243465 -7.4375 5.1875 C-5.32548778 0.82267474 -4.9187389 0.03934991 0 0 Z " fill="#B4D7FC" transform="translate(93.4375,40.8125)"/>
<path d="M0 0 C0.79148437 -0.02578125 1.58296875 -0.0515625 2.3984375 -0.078125 C5.09524878 0.31929982 5.93229015 1.17506535 7.625 3.25 C5.75 7.125 5.75 7.125 4.625 8.25 C2.62890625 8.41796875 2.62890625 8.41796875 0.1875 8.4375 C-1.01712891 8.45876953 -1.01712891 8.45876953 -2.24609375 8.48046875 C-4.375 8.25 -4.375 8.25 -6.375 6.25 C-5.7378584 1.02543889 -5.18349924 0.10065047 0 0 Z " fill="#B3D7FC" transform="translate(6.375,40.75)"/>
<path d="M0 0 C4.55555556 0.55555556 4.55555556 0.55555556 6 2 C6.203125 3.9609375 6.203125 3.9609375 6.25 6.375 C6.28867187 7.56222656 6.28867187 7.56222656 6.328125 8.7734375 C5.93070018 11.47024878 5.07493465 12.30729015 3 14 C-0.875 12.125 -0.875 12.125 -2 11 C-2.16796875 9.00390625 -2.16796875 9.00390625 -2.1875 6.5625 C-2.20167969 5.75941406 -2.21585938 4.95632812 -2.23046875 4.12890625 C-2 2 -2 2 0 0 Z " fill="#B3D7FC" transform="translate(48,0)"/>
<path d="M0 0 C1.3303125 0.00773437 1.3303125 0.00773437 2.6875 0.015625 C3.574375 0.01046875 4.46125 0.0053125 5.375 0 C7.6875 0.265625 7.6875 0.265625 9.6875 2.265625 C9.3575 3.915625 9.0275 5.565625 8.6875 7.265625 C4.7275 7.265625 0.7675 7.265625 -3.3125 7.265625 C-3.6425 5.615625 -3.9725 3.965625 -4.3125 2.265625 C-2.3125 0.265625 -2.3125 0.265625 0 0 Z " fill="#B4D7FD" transform="translate(47.3125,92.734375)"/>
</svg>
